<svg width="32" height="13" viewBox="0 0 32 13" fill="none" xmlns="http://www.w3.org/2000/svg">
<path d="M9.1555 9.952C9.1555 10.56 9.19284 11.2427 9.2675 12C8.54217 11.968 7.32084 11.952 5.6035 11.952C3.5555 11.952 2.00884 11.968 0.963504 12V11.68C1.3475 11.6587 1.62484 11.616 1.7955 11.552C1.97684 11.488 2.0995 11.3653 2.1635 11.184C2.2275 11.0027 2.2595 10.7093 2.2595 10.304V2.368C2.2595 1.96267 2.2275 1.66933 2.1635 1.488C2.0995 1.30667 1.97684 1.184 1.7955 1.12C1.62484 1.056 1.3475 1.01333 0.963504 0.992V0.672C2.00884 0.704 3.5555 0.719999 5.6035 0.719999C7.1715 0.719999 8.28617 0.704 8.9475 0.672C8.87284 1.376 8.8355 2.00533 8.8355 2.56C8.8355 2.976 8.8515 3.30667 8.8835 3.552H8.5155C8.44084 2.85867 8.34484 2.34667 8.2275 2.016C8.11017 1.67467 7.91284 1.42933 7.6355 1.28C7.35817 1.12 6.93684 1.04 6.3715 1.04H5.0435C4.6595 1.04 4.37684 1.072 4.1955 1.136C4.02484 1.18933 3.9075 1.30667 3.8435 1.488C3.7795 1.66933 3.7475 1.96267 3.7475 2.368V6.144H4.8035C5.17684 6.144 5.46484 6.05867 5.6675 5.888C5.87017 5.70667 6.0035 5.49867 6.0675 5.264C6.14217 5.01867 6.20084 4.71467 6.2435 4.352L6.2915 4.032H6.6595C6.6275 4.48 6.6115 4.98133 6.6115 5.536V6.304C6.6115 6.848 6.6435 7.60533 6.7075 8.576H6.3395C6.32884 8.50133 6.29684 8.24533 6.2435 7.808C6.19017 7.36 6.04084 7.024 5.7955 6.8C5.56084 6.576 5.23017 6.464 4.8035 6.464H3.7475V10.304C3.7475 10.7093 3.7795 11.0027 3.8435 11.184C3.9075 11.3653 4.02484 11.488 4.1955 11.552C4.37684 11.6053 4.6595 11.632 5.0435 11.632H6.2115C6.87284 11.632 7.37417 11.5467 7.7155 11.376C8.0675 11.1947 8.3235 10.912 8.4835 10.528C8.6435 10.1333 8.76084 9.55733 8.8355 8.8H9.2035C9.1715 9.088 9.1555 9.472 9.1555 9.952ZM20.7615 0.992C20.3882 1.01333 20.1108 1.072 19.9295 1.168C19.7482 1.25333 19.6255 1.40267 19.5615 1.616C19.4975 1.81867 19.4655 2.12267 19.4655 2.528V12.08H19.0975L12.3775 1.696V10.144C12.3775 10.56 12.4095 10.8693 12.4735 11.072C12.5482 11.2747 12.6868 11.424 12.8895 11.52C13.0922 11.6053 13.4068 11.6587 13.8335 11.68V12C13.4495 11.968 12.9055 11.952 12.2015 11.952C11.5615 11.952 11.0655 11.968 10.7135 12V11.68C11.0868 11.6587 11.3642 11.6053 11.5455 11.52C11.7268 11.424 11.8495 11.2747 11.9135 11.072C11.9775 10.8587 12.0095 10.5493 12.0095 10.144V2.368C12.0095 1.96267 11.9775 1.66933 11.9135 1.488C11.8495 1.30667 11.7268 1.184 11.5455 1.12C11.3748 1.056 11.0975 1.01333 10.7135 0.992V0.672C11.0655 0.704 11.5615 0.719999 12.2015 0.719999C12.6815 0.719999 13.0975 0.704 13.4495 0.672L19.0975 9.376V2.528C19.0975 2.112 19.0602 1.80267 18.9855 1.6C18.9215 1.39733 18.7882 1.25333 18.5855 1.168C18.3828 1.072 18.0682 1.01333 17.6415 0.992V0.672C18.0255 0.704 18.5695 0.719999 19.2735 0.719999C19.9135 0.719999 20.4095 0.704 20.7615 0.672V0.992ZM27.245 0.447999C27.8743 0.447999 28.3917 0.538666 28.797 0.719999C29.2023 0.890666 29.645 1.14667 30.125 1.488C30.2637 1.59467 30.3703 1.648 30.445 1.648C30.6477 1.648 30.781 1.32267 30.845 0.672H31.213C31.1703 1.36533 31.149 2.592 31.149 4.352H30.781C30.685 3.78667 30.5837 3.32267 30.477 2.96C30.3703 2.58667 30.205 2.26133 29.981 1.984C29.6717 1.6 29.2663 1.296 28.765 1.072C28.2743 0.847999 27.757 0.735999 27.213 0.735999C26.509 0.735999 25.8903 0.965333 25.357 1.424C24.8237 1.88267 24.413 2.53867 24.125 3.392C23.837 4.23467 23.693 5.22133 23.693 6.352C23.693 8.272 23.997 9.68 24.605 10.576C25.2237 11.4613 26.189 11.904 27.501 11.904C28.141 11.904 28.6957 11.7387 29.165 11.408C29.357 11.28 29.4797 11.1573 29.533 11.04C29.597 10.912 29.629 10.7413 29.629 10.528V8.992C29.629 8.544 29.5863 8.21867 29.501 8.016C29.4157 7.81333 29.2663 7.67467 29.053 7.6C28.8397 7.52533 28.493 7.47733 28.013 7.456V7.136C28.5677 7.168 29.3197 7.184 30.269 7.184C30.9943 7.184 31.549 7.168 31.933 7.136V7.456C31.6877 7.47733 31.5063 7.52 31.389 7.584C31.2823 7.648 31.2077 7.77067 31.165 7.952C31.133 8.13333 31.117 8.42667 31.117 8.832V12H30.797C30.7863 11.7867 30.7437 11.584 30.669 11.392C30.5943 11.1893 30.493 11.088 30.365 11.088C30.301 11.088 30.237 11.104 30.173 11.136C30.109 11.168 29.997 11.2427 29.837 11.36C29.4637 11.648 29.0743 11.8613 28.669 12C28.2743 12.1493 27.8317 12.224 27.341 12.224C26.2423 12.224 25.2983 12 24.509 11.552C23.7303 11.0933 23.133 10.4373 22.717 9.584C22.301 8.73067 22.093 7.712 22.093 6.528C22.093 5.312 22.3117 4.24533 22.749 3.328C23.197 2.4 23.8103 1.69067 24.589 1.2C25.3677 0.698666 26.253 0.447999 27.245 0.447999Z" fill="white"/>
</svg>
