<svg width="82" height="32" viewBox="0 0 82 32" fill="none" xmlns="http://www.w3.org/2000/svg">
    <path d="M81.7135 13.5801C81.7135 13.0568 81.7135 12.5335 81.635 12.0364C81.5827 11.5916 81.5303 11.1468 81.4257 10.7019C81.321 10.3095 81.2425 9.91699 81.1379 9.52452C81.0594 9.18437 80.9285 8.87039 80.7977 8.53024C80.6669 8.21626 80.5361 7.87611 80.3791 7.56213C80.0651 6.908 79.6988 6.3062 79.3063 5.7044C78.94 5.1811 78.5213 4.6578 78.0765 4.18682C77.7625 3.84668 77.3962 3.53269 77.0299 3.21871C76.5328 2.80007 75.9833 2.40759 75.4338 2.06744C74.9367 1.75346 74.3872 1.46564 73.8378 1.23016C73.236 0.968507 72.608 0.73302 71.9539 0.576029C71.5614 0.471369 71.1428 0.392873 70.7503 0.314378C70.4886 0.262047 70.2008 0.235882 69.9392 0.183552C69.8083 0.157387 69.6775 0.157387 69.5467 0.131221C69.1542 0.105056 68.7617 0.0265608 68.3954 0.0265608C67.8721 0.0265608 67.3488 0.000395656 66.8255 0.052726C66.5115 0.0788912 66.1714 0.0788912 65.8574 0.131221C65.4387 0.183552 65.0201 0.262047 64.6015 0.340543C64.0258 0.419038 63.4764 0.576029 62.9007 0.73302C62.4298 0.863846 61.9588 1.02084 61.4878 1.17783C61.043 1.33482 60.5982 1.51798 60.1534 1.7273C59.7086 1.93662 59.2638 2.14594 58.8451 2.38143C58.3218 2.66924 57.8247 2.95706 57.3275 3.29721C56.8042 3.63735 56.3071 4.00367 55.8361 4.39614C55.4698 4.68396 55.1297 4.99794 54.7634 5.31192C54.5802 5.46891 54.397 5.65207 54.2139 5.83523C53.9261 6.14921 53.6121 6.43703 53.3243 6.75101C53.0103 7.09116 52.7225 7.45747 52.4608 7.82378C52.0422 8.34708 51.6759 8.92272 51.3096 9.49835C51.1264 9.78617 50.9694 10.1001 50.7863 10.4141C50.6293 10.7019 50.4461 11.0159 50.3153 11.3299C50.106 11.8009 49.9228 12.2719 49.7135 12.7428C49.635 12.9522 49.5565 13.1615 49.478 13.3708C49.3995 13.6063 49.321 13.8418 49.2687 14.1034C49.1902 14.3651 49.1117 14.6267 49.0594 14.8884C48.9809 15.3593 48.85 15.8303 48.7977 16.3013C48.7454 16.7199 48.6669 17.1647 48.6407 17.6096C48.6145 17.9759 48.6145 18.316 48.5884 18.6823C48.5884 18.8655 48.6145 19.0748 48.6145 19.258C48.6407 19.5458 48.6407 19.8598 48.6669 20.1476C48.7192 20.5662 48.7715 20.9849 48.85 21.4035C48.9285 21.8221 49.0332 22.2408 49.164 22.6594C49.2687 23.0781 49.4257 23.4706 49.5827 23.863C49.792 24.3863 50.0275 24.9096 50.3153 25.3806C50.5508 25.7993 50.8124 26.1917 51.1002 26.5842C51.4142 27.0028 51.7282 27.3953 52.0945 27.7616C52.33 28.0233 52.6178 28.2849 52.9056 28.5204C53.1411 28.7297 53.3766 28.9391 53.6121 29.1222C54.1354 29.5147 54.6849 29.9072 55.2605 30.195C55.7053 30.4305 56.1763 30.666 56.6473 30.8753C57.1706 31.0846 57.6939 31.2416 58.2172 31.3986C58.6096 31.5294 59.0283 31.6341 59.4208 31.7126C59.9441 31.8172 60.4674 31.8696 60.9645 31.9219C61.3308 31.9742 61.6971 32.0004 62.0634 32.0004C62.6129 32.0004 63.1624 31.9742 63.7118 31.9742H63.738C64.1828 31.8957 64.6538 31.8957 65.0986 31.8172C65.5957 31.7387 66.0667 31.6602 66.5377 31.5556C67.1395 31.4248 67.7413 31.2416 68.3431 31.0584C69.1542 30.7968 69.9653 30.4566 70.7503 30.0642C71.1689 29.8549 71.5876 29.6194 72.0062 29.3839C72.8173 28.9129 73.5761 28.3896 74.3087 27.814C74.9105 27.343 75.4862 26.8197 76.0618 26.2702C76.2188 26.1132 76.3758 25.9562 76.5328 25.7731C76.6898 25.5899 76.8729 25.4068 77.0299 25.2236C77.2916 24.9358 77.5271 24.6218 77.7625 24.334C77.998 24.02 78.2597 23.706 78.469 23.3921C78.8353 22.8164 79.2278 22.267 79.5156 21.6652C79.7249 21.2203 79.9604 20.7755 80.1697 20.3307C80.5099 19.5981 80.7715 18.8393 80.9809 18.0544C81.0855 17.6619 81.1902 17.2956 81.2687 16.9031C81.3472 16.5106 81.3995 16.1181 81.4518 15.7257C81.5042 15.3332 81.5565 14.9407 81.5827 14.5482C81.7396 14.2081 81.7135 13.8941 81.7135 13.5801ZM80.1959 14.1819C80.1697 14.8622 80.0912 15.5425 79.9604 16.1966C79.8558 16.7199 79.7249 17.2432 79.5941 17.7404C79.4894 18.159 79.3325 18.5515 79.1755 18.9701C78.8353 19.8859 78.3905 20.7494 77.8672 21.5605C77.1084 22.7903 76.2188 23.9154 75.1984 24.9358C74.4396 25.6946 73.6546 26.3749 72.7912 27.0028C72.0847 27.5262 71.3259 27.971 70.541 28.3896C69.756 28.8082 68.9449 29.1746 68.1338 29.4624C67.689 29.6194 67.218 29.7502 66.747 29.881C66.0929 30.0642 65.4388 30.1688 64.7846 30.2997C64.4968 30.352 64.1828 30.3782 63.895 30.3782C63.3455 30.4043 62.7699 30.4305 62.1943 30.4305C61.7756 30.4305 61.357 30.3782 60.9122 30.3258C60.572 30.2997 60.2319 30.2473 59.8917 30.1688C59.3946 30.0642 58.8975 29.9333 58.4003 29.8025C57.9555 29.6717 57.5107 29.4885 57.0659 29.3054C56.4641 29.0437 55.9146 28.7297 55.3652 28.3896C54.5017 27.814 53.7168 27.1337 53.0365 26.3487C52.6178 25.8777 52.2515 25.3806 51.9375 24.8311C51.4927 24.0985 51.1264 23.3136 50.8647 22.4763C50.7601 22.1361 50.6554 21.8221 50.5769 21.482C50.4984 21.1157 50.4199 20.7232 50.3676 20.3569C50.2891 19.8336 50.2629 19.3103 50.2106 18.8132C50.1845 18.5777 50.2106 18.3422 50.2106 18.1067C50.2106 17.8189 50.2368 17.5311 50.263 17.2694C50.3153 16.7461 50.3676 16.2228 50.4984 15.6995C50.5769 15.3332 50.6293 14.9669 50.7339 14.6267C50.8909 14.0773 51.0479 13.5278 51.2572 13.0045C51.4927 12.4289 51.7544 11.8794 52.016 11.3299C52.3823 10.6235 52.801 9.96932 53.2458 9.31519C53.7691 8.5564 54.3709 7.84995 54.9988 7.19582C55.6791 6.48936 56.4118 5.86139 57.1967 5.25959C57.7724 4.84095 58.348 4.42231 58.976 4.056C59.4731 3.76818 59.9702 3.50653 60.4674 3.24488C61.0168 2.95706 61.6186 2.72157 62.1943 2.51225C62.8484 2.27677 63.5287 2.09361 64.209 1.93662C64.7585 1.80579 65.3079 1.70113 65.8574 1.6488C66.4854 1.57031 67.1395 1.54414 67.7674 1.51798C68.5524 1.51798 69.3374 1.59647 70.0961 1.7273C70.6718 1.80579 71.2212 1.93662 71.7707 2.11977C72.2679 2.27677 72.765 2.43376 73.236 2.64308C73.8378 2.90473 74.4134 3.21871 74.9629 3.58502C75.5123 3.95134 76.0356 4.36998 76.5328 4.81479C76.9514 5.20726 77.3177 5.62591 77.684 6.07071C78.2858 6.85567 78.783 7.69295 79.1755 8.58257C79.411 9.13204 79.6203 9.70767 79.7511 10.2833C79.9342 11.0159 80.0651 11.7486 80.0912 12.5073C80.1959 13.083 80.2221 13.6324 80.1959 14.1819Z" fill="white"/>
    <path d="M1.64841 29.9332C1.64841 19.9642 1.64841 9.9953 1.64841 0.0263672C1.09894 0.0263672 0.549469 0.0263672 0 0.0263672C0 10.4924 0 20.9585 0 31.4246C0.261652 31.4769 10.8847 31.4507 11.0417 31.4246C11.0417 30.9274 11.0417 30.4303 11.0417 29.9332C7.90188 29.9332 4.78823 29.9332 1.64841 29.9332Z" fill="white"/>
    <path d="M41.5241 29.9071C41.5241 29.1222 41.5241 28.3634 41.5241 27.5784C41.5241 26.8196 41.5241 26.0608 41.5241 25.302C41.5241 24.5432 41.5241 23.7583 41.5241 22.9995C41.5241 22.2407 41.5241 21.4819 41.5241 20.7231C41.5241 19.9643 41.5241 19.1794 41.5241 18.4206C41.5241 17.6618 41.5241 16.903 41.5241 16.1442C41.5241 15.3854 41.5241 14.6005 41.5241 13.8417C41.5241 13.0829 41.5241 12.3241 41.5241 11.5653C41.5241 10.8065 41.5241 10.0216 41.5241 9.26279C41.5241 8.504 41.5241 7.74521 41.5241 6.98642C41.5241 6.22763 41.5241 5.44268 41.5241 4.68389C41.5241 3.9251 41.5241 3.16631 41.5241 2.40752C41.5241 1.64873 41.5241 0.86377 41.5241 0.10498C40.9746 0.10498 40.4252 0.10498 39.9019 0.10498C39.9019 10.571 39.9019 21.0371 39.9019 31.5032C43.4342 31.5032 46.9403 31.5032 50.4464 31.5032C50.4464 31.006 50.4464 30.5089 50.4464 30.0118C47.4636 29.9071 44.5069 29.9071 41.5241 29.9071Z" fill="white"/>
    <path d="M36.0557 29.305C35.8202 28.677 35.5848 28.0491 35.3493 27.4211C35.0876 26.767 34.826 26.0867 34.5643 25.4325C34.3288 24.8046 34.0933 24.2028 33.8578 23.5748C33.5439 22.7899 33.2561 22.0049 32.9421 21.2461C32.6543 20.4612 32.3403 19.6762 32.0525 18.9174C31.7385 18.1325 31.4245 17.3475 31.1367 16.5364C30.9012 15.9084 30.6657 15.2805 30.404 14.6263C30.0901 13.8414 29.8022 13.0564 29.4883 12.2715C29.2789 11.722 29.0696 11.1725 28.8603 10.6231C28.6771 10.1521 28.494 9.65495 28.3108 9.18397C28.1277 8.713 27.9445 8.24203 27.7614 7.77106C27.552 7.24775 27.3427 6.72445 27.1596 6.20115C26.9764 5.70401 26.7671 5.20687 26.5839 4.70973C26.3746 4.18643 26.1915 3.68929 25.9821 3.16599C25.8513 2.852 25.7466 2.51186 25.6158 2.19787C25.4065 1.64841 25.1972 1.1251 24.9879 0.575634C24.9094 0.392478 24.8309 0.209321 24.7524 0C24.7262 0.0784955 24.6739 0.130826 24.6739 0.183156C24.4907 0.654129 24.3076 1.1251 24.1506 1.59608C23.8889 2.2502 23.6273 2.90433 23.3918 3.55846C23.2086 4.02944 23.0255 4.50041 22.8423 4.97138C22.5283 5.75634 22.2405 6.51513 21.9265 7.30008C21.6649 8.00654 21.3771 8.68684 21.1154 9.3933C20.8276 10.1259 20.5398 10.8585 20.2781 11.5912C20.0426 12.2453 19.781 12.8733 19.5455 13.5274C19.2315 14.3123 18.9437 15.0711 18.6297 15.8561C18.3681 16.5102 18.1326 17.1382 17.8971 17.7923C17.6354 18.4464 17.3738 19.1006 17.1383 19.7547C16.9028 20.3827 16.6673 20.9845 16.4318 21.6124C16.1179 22.3974 15.83 23.1562 15.5161 23.9411C15.2544 24.5953 15.0189 25.2232 14.7834 25.8774C14.4695 26.6623 14.1816 27.4473 13.8677 28.2322C13.6583 28.7817 13.449 29.3312 13.2397 29.8806C13.0565 30.3516 12.8995 30.7964 12.7164 31.2674C12.6902 31.3197 12.6902 31.3982 12.6641 31.4505C12.6902 31.4505 12.7164 31.4767 12.7164 31.4767C13.2397 31.4767 13.763 31.4767 14.2863 31.4767C14.391 31.4767 14.4433 31.4244 14.4695 31.3459C14.7573 30.5871 15.0451 29.8545 15.3329 29.0957C15.6207 28.363 15.9085 27.6304 16.1702 26.924C16.4057 26.3222 16.6412 25.7204 16.8767 25.1186C17.0075 24.8046 17.1121 24.5168 17.243 24.2028C17.4261 23.7056 17.6354 23.2085 17.8186 22.7375C17.9233 22.502 18.0018 22.2404 18.1064 21.9787C22.5807 21.9787 27.0549 21.9787 31.5292 21.9787C32.1309 23.5748 32.7589 25.1447 33.3607 26.7408C33.9887 28.3369 34.5905 29.9068 35.2184 31.5029C35.8202 31.5029 36.3697 31.5029 36.9715 31.5029C36.893 31.2674 36.8145 31.0581 36.736 30.8487C36.4482 30.2993 36.2389 29.8021 36.0557 29.305ZM18.6036 20.4088C20.6444 15.1235 22.6592 9.89043 24.7262 4.60507C24.7524 4.6574 24.7785 4.68357 24.8047 4.70973C25.014 5.2592 25.2495 5.83483 25.4588 6.3843C25.5897 6.75061 25.7205 7.11693 25.8513 7.45707C26.1653 8.26819 26.4793 9.05315 26.7933 9.8381C27.0287 10.4661 27.2642 11.094 27.5259 11.722C27.8399 12.5331 28.1538 13.3181 28.4678 14.103C28.7033 14.731 28.965 15.3851 29.2004 16.0131C29.5144 16.798 29.8022 17.5568 30.1162 18.3418C30.3517 18.9697 30.5872 19.5977 30.8227 20.2257C30.8489 20.278 30.8489 20.3042 30.8489 20.3827C26.7409 20.4088 22.6853 20.4088 18.6036 20.4088Z" fill="white"/>
</svg>
