<svg width="25" height="25" viewBox="0 0 25 25" fill="none" xmlns="http://www.w3.org/2000/svg">
<path d="M15.3563 10.1C15.2682 10.1 15.1905 10.0424 15.1649 9.95813L12.4834 1.13001C12.4259 0.940849 12.1581 0.94085 12.1006 1.13001L9.41909 9.95813C9.39349 10.0424 9.31579 10.1 9.22772 10.1H0.916578C0.721963 10.1 0.64199 10.3498 0.800406 10.4628L7.59038 15.3081C7.66059 15.3582 7.69077 15.4476 7.66526 15.53L5.07247 23.9042C5.01494 24.09 5.22968 24.2403 5.38455 24.1226L12.1711 18.9639C12.2425 18.9096 12.3415 18.9095 12.413 18.9638L19.2118 24.1234C19.3667 24.241 19.5813 24.0907 19.5238 23.905L16.9307 15.5299C16.9052 15.4476 16.9353 15.3582 17.0055 15.308L23.7845 10.4627C23.9428 10.3496 23.8628 10.1 23.6682 10.1H15.3563Z" stroke="white"/>
</svg>
