<svg width="13" height="8" viewBox="0 0 13 8" fill="none" xmlns="http://www.w3.org/2000/svg">
<path d="M1.35355 0.896446C1.15829 0.701184 0.841709 0.701184 0.646446 0.896446C0.451184 1.09171 0.451184 1.40829 0.646446 1.60355L1.35355 0.896446ZM6.5 6.75L6.14645 7.10355C6.34171 7.29882 6.65829 7.29882 6.85355 7.10355L6.5 6.75ZM12.3536 1.60355C12.5488 1.40829 12.5488 1.09171 12.3536 0.896447C12.1583 0.701184 11.8417 0.701184 11.6464 0.896447L12.3536 1.60355ZM0.646446 1.60355L6.14645 7.10355L6.85355 6.39645L1.35355 0.896446L0.646446 1.60355ZM6.85355 7.10355L12.3536 1.60355L11.6464 0.896447L6.14645 6.39645L6.85355 7.10355Z" fill="#777777"/>
</svg>
