<svg width="13" height="8" viewBox="0 0 13 8" fill="none" xmlns="http://www.w3.org/2000/svg">
<path d="M11.6464 7.10355C11.8417 7.29882 12.1583 7.29882 12.3536 7.10355C12.5488 6.90829 12.5488 6.59171 12.3536 6.39645L11.6464 7.10355ZM6.5 1.25L6.85355 0.896446C6.65829 0.701184 6.34171 0.701184 6.14645 0.896446L6.5 1.25ZM0.646447 6.39645C0.451184 6.59171 0.451184 6.90829 0.646447 7.10355C0.841709 7.29882 1.15829 7.29882 1.35355 7.10355L0.646447 6.39645ZM12.3536 6.39645L6.85355 0.896446L6.14645 1.60355L11.6464 7.10355L12.3536 6.39645ZM6.14645 0.896446L0.646447 6.39645L1.35355 7.10355L6.85355 1.60355L6.14645 0.896446Z" fill="#777777"/>
</svg>
