<svg width="23" height="12" viewBox="0 0 23 12" fill="none" xmlns="http://www.w3.org/2000/svg">
<path d="M16.1464 11.1464C15.9512 11.3417 15.9512 11.6583 16.1464 11.8536C16.3417 12.0488 16.6583 12.0488 16.8536 11.8536L16.1464 11.1464ZM22 6L22.3536 6.35355C22.5488 6.15829 22.5488 5.84171 22.3536 5.64645L22 6ZM16.8536 0.146447C16.6583 -0.0488155 16.3417 -0.0488155 16.1464 0.146447C15.9512 0.341709 15.9512 0.658291 16.1464 0.853553L16.8536 0.146447ZM16.8536 11.8536L22.3536 6.35355L21.6464 5.64645L16.1464 11.1464L16.8536 11.8536ZM22.3536 5.64645L16.8536 0.146447L16.1464 0.853553L21.6464 6.35355L22.3536 5.64645Z" fill="#919EAB"/>
<path d="M1 5.5C0.723858 5.5 0.5 5.72386 0.5 6C0.5 6.27614 0.723858 6.5 1 6.5V5.5ZM22 5.5H1V6.5H22V5.5Z" fill="#919EAB"/>
</svg>
