<svg width="8" height="14" viewBox="0 0 8 14" fill="none" xmlns="http://www.w3.org/2000/svg">
<path d="M2.10602 7.9025C1.77234 7.9025 1.46153 7.9025 1.15528 7.9025C0.894746 7.9025 0.629634 7.90707 0.369096 7.9025C0.094845 7.89793 0.00342813 7.81565 0.00342813 7.5414C-0.00114271 6.82835 -0.00114271 6.1153 0.00342813 5.40225C0.00799897 5.13257 0.103986 5.04572 0.373665 5.04572C0.881029 5.04115 1.38839 5.04572 1.89576 5.04572C1.95975 5.04572 2.01917 5.04572 2.10602 5.04572C2.10602 4.96802 2.10602 4.90402 2.10602 4.83546C2.11973 4.1864 2.0923 3.53277 2.14715 2.88828C2.28885 1.24278 3.54583 0.0680716 5.1959 0.0132214C5.86782 -0.00963277 6.53974 0.00407976 7.21622 0.00407976C7.4539 0.00407976 7.54989 0.100067 7.54989 0.337751C7.55446 1.00509 7.55446 1.67244 7.54989 2.33978C7.54989 2.59575 7.45847 2.68716 7.19794 2.69631C6.73628 2.70545 6.27462 2.70545 5.81297 2.71459C5.29646 2.72373 5.07707 2.92485 5.06792 3.43678C5.05878 3.95329 5.06335 4.46979 5.06335 5.00915C5.14106 5.00915 5.20047 5.00915 5.26447 5.00915C5.84953 5.00915 6.43917 5.00915 7.02424 5.00915C7.39448 5.00915 7.48133 5.096 7.48133 5.46167C7.48133 6.13815 7.48133 6.81921 7.48133 7.49569C7.48133 7.79737 7.39905 7.87964 7.0928 7.88421C6.42546 7.88878 5.75812 7.88421 5.05878 7.88421C5.05878 7.96192 5.05878 8.03505 5.05878 8.10361C5.05878 9.88624 5.05878 11.6734 5.05878 13.4561C5.05878 13.9497 5.0085 14 4.50571 14C3.85208 14 3.19388 14 2.54025 14C2.18829 14 2.10602 13.9132 2.10602 13.5658C2.10602 11.7511 2.10602 9.94109 2.10602 8.12647C2.10602 8.05791 2.10602 7.98934 2.10602 7.9025Z" fill="black"/>
</svg>
