<svg width="14" height="14" viewBox="0 0 14 14" fill="none" xmlns="http://www.w3.org/2000/svg">
<path d="M9.90172 14C7.97069 14 6.03624 14 4.10521 14C4.08467 13.9932 4.0607 13.9829 4.04016 13.9829C3.60533 13.9521 3.1842 13.8596 2.78019 13.6953C1.77017 13.2878 1.00666 12.6031 0.496515 11.6376C0.133591 10.9494 -0.00336133 10.2098 6.24763e-05 9.43606C0.0069101 7.80975 6.16403e-05 6.18344 0.00348545 4.55713C0.00348545 4.26953 0.017179 3.98193 0.0616885 3.70118C0.229455 2.59529 0.760146 1.68798 1.61952 0.982675C2.44808 0.30476 3.41017 -0.00338308 4.4784 4.07272e-05C6.15607 0.00346454 7.83031 0.00346454 9.50798 4.07272e-05C10.405 -0.00338308 11.237 0.208893 11.9937 0.701922C12.9181 1.30794 13.5412 2.13992 13.8323 3.20815C13.911 3.49917 13.9452 3.80389 14 4.10176C14 6.03279 14 7.96725 14 9.89828C13.9932 9.93251 13.9829 9.96675 13.9795 10.001C13.9315 10.5659 13.7843 11.1 13.5207 11.6033C12.9249 12.7366 12.0142 13.4899 10.7782 13.8357C10.4975 13.9178 10.1962 13.9486 9.90172 14ZM7.00518 12.6887C7.85771 12.6887 8.71023 12.6921 9.56276 12.6853C9.799 12.6818 10.0387 12.6681 10.2681 12.6168C11.73 12.2847 12.6921 11.0726 12.6921 9.57301C12.6955 7.86111 12.6955 6.14578 12.6887 4.43387C12.6887 4.20448 12.6716 3.96824 12.6202 3.74226C12.2881 2.2803 11.0761 1.31821 9.57646 1.31821C7.86455 1.31478 6.14922 1.31479 4.43732 1.32163C4.20792 1.32163 3.97168 1.33875 3.74571 1.39011C2.29402 1.71879 1.32508 2.9274 1.32165 4.40648C1.3148 6.13893 1.31823 7.87138 1.32165 9.6004C1.32165 10.0421 1.39698 10.4735 1.59213 10.8741C2.16733 12.0587 3.12258 12.6681 4.44074 12.6887C5.28985 12.699 6.1458 12.6887 7.00518 12.6887Z" fill="black"/>
<path d="M6.98814 10.5011C5.05027 10.484 3.48216 8.89533 3.50613 6.97799C3.5301 5.04354 5.10505 3.48571 7.02238 3.50283C8.96026 3.51994 10.5284 5.10859 10.5044 7.02593C10.4804 8.96038 8.90205 10.5182 6.98814 10.5011ZM7.00869 9.18977C8.20702 9.18635 9.18965 8.20372 9.18965 7.00538C9.18965 5.8002 8.20017 4.81415 6.99842 4.81757C5.80008 4.82099 4.81745 5.80363 4.81745 7.00196C4.81745 8.20372 5.80693 9.1932 7.00869 9.18977Z" fill="black"/>
<path d="M10.7645 3.70129C10.5077 3.70129 10.3057 3.49928 10.3023 3.24592C10.2989 2.98571 10.5077 2.77344 10.7645 2.77344C11.0213 2.77344 11.2336 2.99256 11.2301 3.24592C11.2267 3.49928 11.0179 3.70129 10.7645 3.70129Z" fill="black"/>
</svg>
