<svg width="13" height="14" viewBox="0 0 13 14" fill="none" xmlns="http://www.w3.org/2000/svg">
<path d="M3.33432 14C3.30011 13.8666 3.25222 13.7332 3.2317 13.5964C3.12566 12.8336 3.04699 12.064 3.14619 11.2978C3.20434 10.8497 3.32063 10.4085 3.43009 9.96722C3.69347 8.88634 3.96711 7.80546 4.23049 6.72458C4.24759 6.65617 4.23733 6.57066 4.21338 6.50567C3.93632 5.73948 3.88844 4.97671 4.24759 4.22419C4.47676 3.75216 4.82908 3.41695 5.3661 3.3075C6.0844 3.16384 6.67957 3.6256 6.72062 4.35759C6.74114 4.74753 6.64878 5.11695 6.53933 5.48294C6.37172 6.04732 6.19386 6.61171 6.02283 7.17609C5.70815 8.20224 6.53249 8.88976 7.41156 8.82819C8.37272 8.75978 9.02946 8.23303 9.49465 7.43605C9.88116 6.77589 10.0419 6.04732 10.0864 5.28797C10.1172 4.74069 10.0693 4.20709 9.87432 3.6906C9.55621 2.85257 8.98499 2.23688 8.17433 1.88115C6.89848 1.3236 5.60553 1.35097 4.36389 1.97692C3.2488 2.53788 2.58864 3.4751 2.41078 4.72017C2.28764 5.5924 2.48603 6.39279 3.02305 7.09742C3.09488 7.19319 3.1154 7.29239 3.08462 7.40526C3.00937 7.69601 2.93412 7.98675 2.85544 8.27407C2.80072 8.47588 2.71862 8.51351 2.52365 8.42116C2.06873 8.20908 1.72326 7.87045 1.45304 7.45315C0.837346 6.50567 0.60817 5.46584 0.80998 4.35075C1.18282 2.2574 2.45182 0.947349 4.44598 0.321397C5.68078 -0.0651205 6.94637 -0.106167 8.20512 0.215361C9.5699 0.564252 10.6816 1.29966 11.4307 2.51736C11.9198 3.31092 12.1353 4.18657 12.0942 5.12037C12.0566 6.05759 11.8445 6.94692 11.3896 7.77126C10.7363 8.95133 9.78197 9.75515 8.45139 10.0698C7.73308 10.2374 7.0182 10.2443 6.32726 9.9296C5.99547 9.7791 5.69788 9.58071 5.49265 9.27286C5.48239 9.25918 5.47555 9.23866 5.44135 9.23866C5.32163 9.6799 5.18139 10.1177 5.08219 10.5624C4.80513 11.804 4.18944 12.8781 3.47797 13.9111C3.45745 13.9419 3.43351 13.9692 3.41299 13.9966C3.38904 14 3.36168 14 3.33432 14Z" fill="black"/>
</svg>
