<svg width="18" height="14" viewBox="0 0 18 14" fill="none" xmlns="http://www.w3.org/2000/svg">
<path d="M0.553223 12.4251C2.46785 12.598 4.17162 12.1341 5.71935 10.9701C4.10414 10.8225 3.02874 10.0086 2.42568 8.50306C2.96549 8.56631 3.46312 8.57897 3.98184 8.43558C2.05878 7.95481 1.15629 6.27213 1.21111 4.93527C1.6961 5.17565 2.18951 5.34012 2.77993 5.35278C1.89431 4.70754 1.38824 3.88096 1.2575 2.84773C1.15629 2.07598 1.31233 1.34218 1.70875 0.650552C3.62338 2.89834 6.03564 4.14243 8.99614 4.34064C8.90758 3.87252 8.89915 3.4255 8.95819 2.97847C9.13531 1.67112 10.2023 0.456559 11.4843 0.131831C12.7959 -0.201331 13.9472 0.0980931 14.9382 1.01745C14.9888 1.06384 15.0858 1.08914 15.1533 1.07649C15.8407 0.937324 16.486 0.692724 17.0975 0.351128C17.1396 0.325824 17.186 0.304738 17.2619 0.266783C16.992 1.09336 16.4902 1.69643 15.8112 2.17298C16.4733 2.10972 17.0932 1.91994 17.7005 1.67534C17.7132 1.68799 17.7258 1.70486 17.7385 1.71751C17.4559 2.05068 17.1818 2.39649 16.8782 2.71278C16.6378 2.9616 16.3552 3.16825 16.098 3.40441C16.0432 3.45502 15.9925 3.5478 15.9925 3.62371C15.9883 7.26319 14.5545 10.1857 11.5897 12.3197C10.3372 13.2179 8.9118 13.7071 7.38094 13.9053C5.93864 14.0951 4.51321 14.0023 3.11309 13.6017C2.23169 13.3487 1.40089 12.9733 0.620699 12.4841C0.60383 12.4757 0.591178 12.4588 0.553223 12.4251Z" fill="black"/>
</svg>
